<?xml version="1.0" ?><!DOCTYPE svg  PUBLIC '-//W3C//DTD SVG 1.1//EN'  'http://www.w3.org/Graphics/SVG/1.1/DTD/svg11.dtd'><svg enable-background="new 0 0 32 32"
 height="32px" id="Слой_1" version="1.1" viewBox="0 0 32 32" width="32px" xml:space="preserve" xmlns="http://www.w3.org/2000/svg"
 xmlns:xlink="http://www.w3.org/1999/xlink"><path d="M 5 9 V 11 H 15 V 9 H 5 Z M 10 0 C 4.48 0 0 4.48 0 10 C 0 15.52 4.48 20 10 20 C 15.52 20 20 15.52 20 10 C 20 4.48 15.52 0 10 0 Z M 10 18 C 5.59 18 2 14.41 2 10 C 2 5.59 5.59 2 10 2 C 14.41 2 18 5.59 18 10 C 18 14.41 14.41 18 10 18 Z" fill="#121313" id="Close"/><g/><g/><g/><g/><g/><g/></svg>